# xmcd
#
# Track frame offsets:
#	150
#	17806
#	35721
#	52397
#	69257
#	85170
#	102778
#	124447
#	138133
#	160371
#
# Disc length: 2400 seconds
#
# Revision: 1
# Processed by: cddbd v1.4PL0 Copyright (c) Steve Scherf et al.
# Submitted via: audiograbber 1.80
#
DISCID=8a095e0a
DTITLE=Nadine - Downtown, Saturday
DYEAR=1900
DGENRE=
TTITLE0=Closer
TTITLE1=Out On A Limb
TTITLE2=Shelter
TTITLE3=Twilight
TTITLE4=Deaf, Blind And Dumb
TTITLE5=So That I Don't Miss You
TTITLE6=Leona
TTITLE7=Ready To Go
TTITLE8=The Lines Are Down
TTITLE9=Whenever You Are Around
EXTD=
EXTT0=
EXTT1=
EXTT2=
EXTT3=
EXTT4=
EXTT5=
EXTT6=
EXTT7=
EXTT8=
EXTT9=
PLAYORDER=
